<svg width="1548" height="1548" viewBox="0 0 1548 1548" fill="none" xmlns="http://www.w3.org/2000/svg">
<path d="M489.025 99.588C568.536 66.1653 652.268 47.1671 738.464 42.9453C704.338 84.4599 656.49 142.862 649.102 152.361C616.735 194.227 593.867 230.113 577.331 261.073L282.156 231.872C343.372 176.636 412.68 131.955 489.025 99.588Z" fill="#586845"/>
<path d="M1058.97 1448.46C979.46 1481.88 895.728 1500.88 809.532 1505.1C843.659 1463.59 891.506 1405.19 898.894 1395.69C931.261 1353.82 954.129 1317.94 970.665 1286.98L1265.84 1316.18C1204.62 1371.41 1135.32 1416.09 1058.97 1448.46Z" fill="#586845"/>
<path d="M1049.47 95.718C1129.34 128.085 1201.81 173.822 1265.84 231.872C1212.37 237.149 1137.43 244.537 1125.11 246.296C1072.69 252.981 1031.18 262.128 997.404 272.331L809.182 42.9453C891.859 46.8153 972.425 64.758 1049.47 95.718Z" fill="#586845"/>
<path d="M498.524 1452.34C418.661 1419.97 346.187 1374.24 282.156 1316.19C335.632 1310.91 410.569 1303.52 422.883 1301.76C475.304 1295.08 516.819 1285.93 550.593 1275.73L738.816 1505.11C656.139 1501.24 575.572 1483.3 498.524 1452.34Z" fill="#586845"/>
<path d="M1448.43 489.057C1481.85 568.568 1500.85 652.3 1505.07 738.496C1463.56 704.369 1405.16 656.522 1395.66 649.134C1353.79 616.767 1317.91 593.898 1286.95 577.363L1316.15 282.188C1371.38 343.404 1416.06 412.712 1448.43 489.057Z" fill="#586845"/>
<path d="M99.5617 1059C66.139 979.491 47.1408 895.758 42.9189 809.562C84.4335 843.689 142.835 891.536 152.334 898.924C194.201 931.292 230.086 954.16 261.046 970.695L231.845 1265.87C176.61 1204.65 131.929 1135.35 99.5617 1059Z" fill="#586845"/>
<path d="M1452.3 1049.48C1419.94 1129.34 1374.2 1201.82 1316.15 1265.85C1310.87 1212.37 1303.49 1137.43 1301.73 1125.12C1295.04 1072.7 1285.89 1031.18 1275.69 997.41L1505.08 809.188C1501.21 891.865 1483.26 972.431 1452.3 1049.48Z" fill="#586845"/>
<path d="M95.6917 498.556C128.059 418.693 173.795 346.218 231.845 282.188C237.123 335.664 244.511 410.601 246.27 422.915C252.954 475.336 262.102 516.85 272.304 550.625L42.9189 738.848C46.7889 656.17 64.7317 575.604 95.6917 498.556Z" fill="#586845"/>
<path d="M593.156 591.772C617.783 633.99 654.724 681.837 670.204 701.539C659.298 717.019 651.909 734.61 649.095 753.96C623.06 750.794 569.232 743.405 527.366 732.499C466.149 716.667 421.117 697.669 372.214 648.766C329.292 605.844 302.554 532.666 287.778 418.325C286.019 405.66 275.464 325.445 271.242 271.617L558.326 301.17C540.031 345.499 536.865 377.514 536.865 401.438C536.865 479.894 558.326 532.666 593.156 591.772Z" fill="#C7D7BC"/>
<path d="M898.536 751.844C900.998 765.565 900.998 779.989 898.887 793.71C924.922 796.877 979.102 804.265 1020.62 815.171C1081.83 831.003 1126.87 850.001 1175.77 898.904C1218.69 941.826 1245.43 1015 1260.2 1129.34C1261.96 1142.01 1272.52 1222.22 1276.74 1276.05L989.656 1246.5C1007.95 1202.17 1011.12 1170.16 1011.12 1146.23C1011.12 1067.42 989.656 1015 954.826 955.547C930.199 913.328 893.258 865.129 877.778 845.779C892.203 825.374 900.647 800.395 900.647 773.656" fill="#C7D7BC"/>
<path d="M775.049 517.525C762.735 565.021 754.995 624.83 751.829 649.809C733.534 652.975 715.591 660.364 699.76 671.974C683.576 651.216 650.505 607.943 628.692 570.65C596.677 516.118 578.382 470.734 578.382 401.425C578.382 340.561 611.101 269.845 681.817 178.725C689.557 168.522 738.811 104.139 773.993 63.3281L955.883 287.436C911.554 306.083 886.575 326.136 870.04 343.024C814.452 398.259 792.288 450.68 775.049 517.525Z" fill="#C7D7BC"/>
<path d="M877.78 846.492C869.688 858.102 859.837 868.305 848.227 876.397C864.411 897.154 897.481 940.428 919.294 977.72C951.31 1032.25 969.956 1077.64 969.956 1146.94C969.956 1207.81 937.237 1278.52 866.521 1369.65C858.781 1379.5 809.527 1443.88 774.345 1485.04L592.455 1260.93C636.784 1242.29 661.763 1222.23 678.299 1205.35C733.886 1149.76 755.699 1097.34 773.29 1030.84C785.603 983.349 793.343 923.54 796.51 898.561C821.137 894.339 844.709 882.378 863.707 863.379" fill="#C7D7BC"/>
<path d="M956.238 593.179C914.02 617.807 866.173 654.747 846.471 670.227C830.991 659.321 813.4 651.933 794.05 649.118C797.216 623.084 804.604 569.256 815.511 527.389C831.342 466.173 850.341 421.14 899.243 372.237C942.165 329.316 1015.34 302.577 1129.68 287.801C1142.35 286.042 1222.56 275.487 1276.39 271.266L1246.84 558.349C1202.51 540.055 1170.5 536.888 1146.57 536.888C1068.12 536.888 1015.34 558.349 956.238 593.179Z" fill="#C7D7BC"/>
<path d="M796.159 898.546C782.438 901.009 768.013 901.009 754.292 898.898C751.126 924.933 743.738 979.113 732.832 1020.63C717 1081.84 698.002 1126.88 649.099 1175.78C606.177 1218.7 532.999 1245.44 418.658 1260.22C405.992 1261.97 325.778 1272.53 271.95 1276.75L301.502 989.667C345.832 1007.96 377.847 1011.13 401.771 1011.13C480.578 1011.13 532.999 989.667 592.456 954.837C634.674 930.21 682.873 893.269 702.223 877.789C722.629 892.214 747.608 900.657 774.346 900.657" fill="#C7D7BC"/>
<path d="M1030.47 775.049C982.972 762.736 923.163 754.996 898.184 751.829C895.017 733.535 887.629 715.592 876.019 699.76C896.776 683.576 940.05 650.506 977.343 628.693C1031.87 596.677 1077.26 578.383 1146.57 578.383C1207.43 578.383 1278.15 611.102 1369.27 681.817C1379.12 689.557 1443.5 738.812 1484.66 773.994L1260.56 955.884C1241.91 911.555 1221.86 886.576 1204.97 870.04C1149.73 814.453 1097.31 792.288 1030.47 775.049Z" fill="#C7D7BC"/>
<path d="M701.519 877.778C689.909 869.686 679.706 859.835 671.614 848.225C650.857 864.409 607.583 897.48 570.291 919.292C515.759 951.308 470.374 969.954 401.066 969.603C340.201 969.603 269.486 936.883 178.365 866.168C168.514 858.428 104.131 809.173 62.9688 773.992L287.077 592.102C305.723 636.431 325.777 661.41 342.664 677.945C398.251 733.532 450.672 755.345 517.166 772.936C564.661 785.25 624.471 792.99 649.45 796.156C653.672 820.783 665.633 844.355 684.632 863.353" fill="#C7D7BC"/>
<path d="M855.741 793.33C866.412 748.136 838.426 702.848 793.232 692.176C748.038 681.505 702.75 709.491 692.078 754.685C681.407 799.879 709.393 845.167 754.587 855.838C799.781 866.51 845.069 838.524 855.741 793.33Z" fill="#F6F295"/>
<path d="M1548 774C1548 560.095 1461.45 366.946 1321.08 226.571C1181.05 86.5473 987.554 0 774 0C560.446 0 366.946 86.5473 226.571 226.923C86.5473 366.946 0 560.446 0 774C0 987.554 86.5473 1181.05 226.923 1321.43C366.946 1461.45 560.446 1548 774 1548C987.554 1548 1181.05 1461.45 1321.43 1321.08C1461.45 1181.05 1548 987.554 1548 774ZM1448.44 489.027C1481.86 568.538 1500.86 652.271 1505.08 738.466C1463.56 704.34 1405.16 656.493 1395.66 649.105C1353.8 616.737 1317.91 593.869 1286.95 577.334L1316.15 282.158C1371.39 343.375 1416.07 412.683 1448.44 489.027ZM1205.33 870.046C1149.74 814.459 1097.32 792.646 1030.83 775.055C983.332 762.742 923.523 755.002 898.544 751.835C901.006 765.556 901.006 779.981 898.895 793.702C924.93 796.868 979.11 804.256 1020.62 815.163C1081.84 830.995 1126.87 849.993 1175.78 898.895C1218.7 941.817 1245.44 1015 1260.21 1129.34C1261.97 1142 1272.53 1222.22 1276.75 1276.04L989.664 1246.49C1007.96 1202.16 1011.13 1170.15 1011.13 1146.22C1011.13 1067.42 989.664 1015 954.835 955.538C930.207 913.32 893.266 865.121 877.786 845.771C892.211 825.365 900.655 800.386 900.655 773.648C900.655 703.988 844.012 647.345 774.352 647.345C746.558 647.345 721.227 656.141 700.118 671.269C683.935 650.512 650.864 607.238 629.051 569.945C597.035 515.414 578.389 470.029 578.389 400.721C578.389 339.856 611.108 269.141 681.824 178.02C689.564 168.521 738.818 104.138 774 63.3273L955.89 287.435C911.561 306.082 886.582 326.135 869.695 343.023C814.107 398.61 792.295 451.031 774.704 517.525C762.39 565.02 754.65 624.829 751.484 649.808C765.205 647.345 779.629 647.345 793.35 649.456C796.516 623.422 803.905 569.242 814.811 527.727C830.643 466.511 849.641 421.478 898.544 372.575C941.465 329.654 1014.64 302.915 1128.98 288.139C1141.65 286.38 1221.86 275.825 1275.69 271.604L1246.14 558.687C1201.81 540.393 1169.8 537.226 1145.87 537.226C1067.06 537.226 1014.64 558.687 955.186 593.517C912.968 618.145 865.121 655.085 845.419 670.565C857.029 678.657 867.232 688.508 875.324 700.118C896.081 683.935 939.355 650.864 976.647 629.051C1031.18 597.035 1076.56 578.741 1145.87 578.741C1206.74 578.741 1277.45 611.46 1368.57 682.175C1378.42 689.915 1442.81 739.17 1483.97 774.352L1259.86 956.242C1242.27 911.561 1221.86 886.582 1205.33 870.046ZM1264.43 965.037C1264.79 965.741 1264.79 966.445 1265.14 966.796C1264.79 966.093 1264.43 965.389 1264.43 965.037ZM1267.95 974.888C1268.3 975.592 1268.3 975.944 1268.66 976.647C1268.3 975.944 1268.3 975.24 1267.95 974.888ZM985.795 1255.64C985.443 1256.34 985.091 1256.69 985.091 1257.4C985.091 1257.05 985.443 1256.34 985.795 1255.64ZM981.221 1265.14C980.869 1265.84 980.869 1266.19 980.517 1266.9C980.869 1266.55 981.221 1265.84 981.221 1265.14ZM592.11 1260.92C636.439 1242.27 661.418 1222.22 677.954 1205.33C733.541 1149.74 755.354 1097.32 772.945 1030.83C785.258 983.332 792.998 923.523 796.164 898.544C815.515 895.025 833.105 887.285 848.234 876.379C864.417 897.136 897.488 940.41 919.301 977.703C951.316 1032.23 969.963 1077.62 969.963 1146.93C969.963 1207.79 937.244 1278.51 866.528 1369.63C858.788 1379.48 809.534 1443.86 774.352 1485.02L592.11 1260.92ZM301.156 989.664C345.485 1007.96 377.501 1011.13 401.425 1011.13C480.232 1011.13 532.653 989.664 592.11 954.835C634.328 930.207 682.175 893.266 701.877 877.786C717.357 888.341 734.948 896.081 754.298 898.895C751.132 924.93 743.744 979.11 732.837 1020.62C717.005 1081.84 698.007 1126.87 649.105 1175.78C606.183 1218.7 533.005 1245.44 418.664 1260.21C405.998 1261.97 325.784 1272.53 271.955 1276.75L301.156 989.664ZM271.252 975.944C271.604 976.295 271.955 976.295 272.307 976.647C271.955 976.295 271.604 975.944 271.252 975.944ZM281.103 980.517C281.806 980.869 282.158 981.221 282.862 981.221C282.158 981.221 281.455 980.869 281.103 980.517ZM593.165 591.758C617.793 633.976 654.734 681.824 670.214 701.525C659.307 717.005 651.919 734.596 649.105 753.946C623.07 750.78 569.242 743.392 527.375 732.485C466.159 716.654 421.126 697.655 372.224 648.753C329.302 605.831 302.564 532.653 287.787 418.312C286.028 405.646 275.474 325.432 271.252 271.604L558.335 301.156C540.041 345.485 536.875 377.501 536.875 401.425C536.875 479.88 558.335 532.653 593.165 591.758ZM562.205 292.361C562.557 291.657 562.909 291.305 562.909 290.602C562.909 290.954 562.557 291.657 562.205 292.361ZM566.779 282.862C567.131 282.158 567.483 281.806 567.483 281.103C567.131 281.455 566.779 282.158 566.779 282.862ZM774 858.085C727.56 858.085 689.915 820.44 689.915 774C689.915 727.56 727.56 689.915 774 689.915C820.44 689.915 858.085 727.56 858.085 774C858.085 820.44 820.44 858.085 774 858.085ZM342.671 677.954C398.258 733.541 450.679 755.354 517.173 772.945C564.668 785.258 624.125 792.998 649.105 796.164C652.623 815.515 660.363 833.105 671.269 848.234C650.512 864.417 607.238 897.488 569.945 919.301C515.414 951.316 470.029 969.963 400.721 969.963C339.856 969.963 269.141 937.244 178.02 866.528C168.169 858.788 103.786 809.534 62.6236 774.352L286.732 592.462C305.73 636.439 326.135 661.418 342.671 677.954ZM582.963 1264.43C582.259 1264.79 581.555 1264.79 581.204 1265.14C581.907 1264.79 582.611 1264.43 582.963 1264.43ZM573.112 1267.95C572.408 1268.3 572.056 1268.3 571.353 1268.66C572.056 1268.3 572.76 1268.3 573.112 1267.95ZM965.037 283.565C965.741 283.214 966.445 283.214 967.148 282.862C966.093 283.214 965.389 283.565 965.037 283.565ZM974.888 280.047C975.592 279.695 975.944 279.695 976.647 279.344C975.944 279.695 975.24 279.695 974.888 280.047ZM1276.75 572.056C1276.4 571.705 1276.04 571.705 1275.69 571.705C1276.04 571.705 1276.4 572.056 1276.75 572.056ZM1266.9 567.483C1266.19 567.131 1265.84 566.779 1265.14 566.779C1265.84 566.779 1266.55 567.131 1266.9 567.483ZM1058.97 99.5645C1135.32 131.932 1204.63 176.261 1265.84 231.848C1212.37 237.125 1137.43 244.514 1125.11 246.273C1072.69 252.957 1031.18 262.105 997.405 272.307L809.182 42.9218C895.729 47.1436 979.462 66.1418 1058.97 99.5645ZM489.027 99.5645C568.538 66.1418 652.271 47.1436 738.466 42.9218C704.34 84.4364 656.493 142.838 649.105 152.337C616.737 194.204 593.869 230.089 577.334 261.049L282.158 231.848C343.375 176.613 412.683 131.932 489.027 99.5645ZM99.5646 489.027C131.932 412.683 176.261 343.375 231.848 282.158C237.125 335.635 244.514 410.572 246.273 422.885C252.957 475.306 262.105 516.821 272.307 550.595L42.9218 738.818C47.1436 652.271 66.1418 568.538 99.5646 489.027ZM283.565 582.963C283.214 582.259 283.214 581.555 282.862 581.204C283.214 581.907 283.565 582.611 283.565 582.963ZM280.047 573.112C279.695 572.408 279.695 572.056 279.344 571.353C279.695 572.056 279.695 572.76 280.047 573.112ZM99.5646 1058.97C66.1418 979.462 47.1436 895.729 42.9218 809.534C84.4364 843.66 142.838 891.507 152.337 898.895C194.204 931.263 230.089 954.483 261.049 970.666L231.848 1265.84C176.613 1204.63 131.932 1135.32 99.5646 1058.97ZM489.027 1448.44C412.683 1416.07 343.375 1371.74 282.158 1316.15C335.635 1310.87 410.572 1303.49 422.885 1301.73C475.306 1295.04 516.821 1285.9 550.595 1275.69L738.818 1505.08C652.271 1500.86 568.538 1481.86 489.027 1448.44ZM1058.97 1448.44C979.462 1481.86 895.729 1500.86 809.534 1505.08C843.66 1463.56 891.507 1405.16 898.895 1395.66C931.263 1353.8 954.131 1317.91 970.666 1286.95L1265.84 1316.15C1204.63 1371.39 1135.32 1416.07 1058.97 1448.44ZM1301.73 1125.11C1295.04 1072.69 1285.9 1031.18 1275.69 997.405L1505.08 809.182C1500.86 895.377 1481.86 979.462 1448.44 1058.62C1416.07 1134.97 1371.74 1204.27 1316.15 1265.49C1310.52 1212.01 1303.13 1137.43 1301.73 1125.11Z" fill="#404040"/>
</svg>
