<svg width="865" height="188" viewBox="0 0 865 188" fill="none" xmlns="http://www.w3.org/2000/svg">
<path d="M70.992 57.936C85.476 54.876 95.982 46.818 95.676 29.07C95.268 4.08 70.89 0.101993 31.722 0.101993H0C0 0.101993 4.284 1.42799 4.284 13.566V131.988C4.284 144.126 0 146.166 0 146.166H60.588C87.21 146.166 110.16 129.438 110.16 102.714C110.16 77.826 98.94 62.322 70.992 57.936ZM16.728 13.464C16.728 8.97599 17.238 6.01799 17.952 3.97799H34.68C66.3 3.97799 82.824 10.608 82.722 28.866C82.722 49.674 70.38 56.712 52.224 56.712C32.946 56.712 22.542 59.466 16.728 62.118V13.464ZM53.244 141.678H18.054C17.238 139.638 16.728 136.476 16.728 131.988V67.218C19.992 63.75 27.54 59.364 45.084 59.364C73.44 59.364 97.206 67.116 97.206 102.51C97.206 130.866 74.052 141.678 53.244 141.678Z" fill="#404040"/>
<path d="M134.068 115.362C134.068 50.49 134.068 36.924 134.068 36.924L117.34 43.452C117.34 43.452 121.624 44.778 121.624 56.916V117.708C121.624 150.96 186.088 161.16 192.82 115.566C182.62 151.164 134.068 150.858 134.068 115.362ZM205.876 37.026L189.25 43.452C189.25 43.452 193.432 45.492 193.534 57.426V135.66C193.534 150.96 193.84 181.254 162.832 181.254C131.824 181.254 125.602 155.346 125.602 155.346C125.602 169.014 138.658 187.068 162.628 187.068C204.958 187.068 205.978 157.386 205.978 135.762L205.876 37.026Z" fill="#404040"/>
<path d="M408.242 0H393.248L338.066 129.336L282.782 0H266.156C266.156 0 272.174 2.856 272.174 13.566V131.988C272.174 144.126 267.992 146.166 267.992 146.166H278.804C278.804 146.166 274.52 144.126 274.52 131.988C274.52 131.988 274.622 11.22 274.622 10.2C275.132 11.22 333.986 146.166 333.986 146.166C333.986 146.166 391.004 11.118 391.514 9.99599V131.988C391.514 144.126 387.332 146.166 387.332 146.166H408.242C408.242 146.166 403.958 144.126 403.958 131.988V13.464C403.958 1.32599 408.242 0 408.242 0Z" fill="#404040"/>
<path d="M467.799 37.128C438.831 37.128 415.371 61.71 415.371 91.8C415.371 121.89 438.831 146.37 467.799 146.37C496.767 146.37 520.227 121.89 520.227 91.8C520.227 61.71 496.767 37.128 467.799 37.128ZM467.799 141.678C445.971 141.678 428.223 118.626 428.223 91.29C428.223 63.954 445.971 41.82 467.799 41.82C489.627 41.82 507.375 63.954 507.375 91.29C507.375 118.626 489.627 141.678 467.799 141.678Z" fill="#404040"/>
<path d="M609.646 117.402C609.646 125.664 604.546 143.616 576.19 143.616C545.692 143.616 537.736 122.4 536.002 117.606L527.332 128.112C530.494 132.294 540.388 146.268 575.986 146.268C611.686 146.268 625.864 133.212 625.864 115.26C625.864 77.418 545.896 94.962 545.896 64.566C545.896 48.45 560.074 40.086 574.15 40.086C611.38 40.086 611.89 63.036 611.89 63.036L615.868 46.308C615.868 46.308 601.384 37.23 575.68 37.23C534.676 37.23 532.942 60.384 532.942 64.668C532.942 106.284 609.646 87.108 609.646 117.402Z" fill="#404040"/>
<path d="M716.454 100.878C716.454 121.38 702.786 140.454 678.204 140.454C658.518 140.454 645.972 130.56 645.972 110.874C645.972 71.706 711.558 79.356 715.842 67.626C707.172 79.56 633.018 65.586 633.018 114.75C633.018 125.868 642.096 146.268 675.552 146.268C698.502 146.268 710.436 132.702 716.454 119.034V132.702C716.454 145.044 724.308 146.268 733.08 146.268C733.08 146.268 728.898 144.942 728.898 132.804V73.134C729 54.468 723.696 37.026 689.424 37.026C670.758 37.026 651.99 43.554 642.708 63.036L653.622 70.278C657.804 52.326 671.574 40.392 689.322 40.392C713.598 40.392 716.454 56.712 716.454 73.236V100.878Z" fill="#404040"/>
<path d="M750.499 9.384C744.889 9.384 740.197 14.076 740.197 19.788C740.197 25.398 744.889 29.988 750.499 29.988C756.211 29.988 760.801 25.398 760.801 19.788C760.801 14.076 756.211 9.384 750.499 9.384ZM741.217 146.268H762.127C762.127 146.268 757.945 144.942 757.945 132.804L757.843 37.026L741.217 43.452C741.217 43.452 745.501 45.492 745.501 57.63V132.702C745.501 144.84 741.217 146.268 741.217 146.268Z" fill="#404040"/>
<path d="M861.593 117.606C851.903 151.062 782.135 153.816 782.135 91.29C782.135 63.954 799.883 41.82 821.711 41.82C836.807 41.82 851.189 49.47 856.595 67.83L864.755 57.324C858.125 45.798 840.275 37.23 821.711 37.23C792.845 37.23 769.283 61.71 769.283 91.8C769.283 126.072 792.845 146.37 821.711 146.37C837.011 146.37 855.371 139.74 861.593 117.606Z" fill="#404040"/>
</svg>
