<svg width="660" height="660" viewBox="0 0 660 660" fill="none" xmlns="http://www.w3.org/2000/svg">
<g clip-path="url(#clip0_1958_2)">
<path d="M252.896 252.305C263.396 270.305 279.146 290.705 285.746 299.105C281.096 305.705 277.946 313.205 276.746 321.455C265.646 320.105 242.696 316.955 224.846 312.305C198.746 305.555 179.546 297.455 158.696 276.605C140.396 258.305 128.996 227.105 122.696 178.355C121.946 172.955 117.446 138.755 115.646 115.805L238.046 128.405C230.246 147.305 228.896 160.955 228.896 171.155C228.896 204.605 238.046 227.105 252.896 252.305Z" fill="#E8F8E9"/>
<path d="M383.097 320.555C384.147 326.405 384.147 332.555 383.247 338.405C394.347 339.755 417.447 342.905 435.147 347.555C461.247 354.305 480.447 362.405 501.297 383.255C519.597 401.555 530.997 432.755 537.297 481.505C538.047 486.905 542.547 521.105 544.347 544.055L421.947 531.455C429.747 512.555 431.097 498.905 431.097 488.705C431.097 455.105 421.947 432.755 407.097 407.405C396.597 389.405 380.847 368.855 374.247 360.605C380.397 351.905 383.997 341.255 383.997 329.855" fill="#E8F8E9"/>
<path d="M330.448 220.65C325.198 240.9 321.898 266.4 320.548 277.05C312.748 278.4 305.098 281.55 298.348 286.5C291.448 277.65 277.348 259.2 268.048 243.3C254.398 220.05 246.598 200.7 246.598 171.15C246.598 145.2 260.548 115.05 290.698 76.2C293.998 71.85 314.998 44.4 329.998 27L407.548 122.55C388.648 130.5 377.998 139.05 370.948 146.25C347.248 169.8 337.798 192.15 330.448 220.65Z" fill="#E8F8E9"/>
<path d="M374.248 360.906C370.798 365.856 366.598 370.206 361.648 373.656C368.548 382.506 382.648 400.956 391.948 416.856C405.598 440.106 413.548 459.456 413.548 489.006C413.548 514.956 399.598 545.106 369.448 583.956C366.148 588.156 345.148 615.606 330.148 633.156L252.598 537.606C271.498 529.656 282.148 521.106 289.198 513.906C312.898 490.206 322.198 467.856 329.698 439.506C334.948 419.256 338.248 393.756 339.598 383.106C350.098 381.306 360.148 376.206 368.248 368.106" fill="#E8F8E9"/>
<path d="M407.699 252.906C389.699 263.406 369.299 279.156 360.899 285.756C354.299 281.106 346.799 277.956 338.549 276.756C339.899 265.656 343.049 242.706 347.699 224.856C354.449 198.756 362.549 179.556 383.399 158.706C401.699 140.406 432.899 129.006 481.649 122.706C487.049 121.956 521.249 117.456 544.199 115.656L531.599 238.056C512.699 230.256 499.049 228.906 488.849 228.906C455.399 228.906 432.899 238.056 407.699 252.906Z" fill="#E8F8E9"/>
<path d="M339.448 383.1C333.598 384.15 327.448 384.15 321.598 383.25C320.248 394.35 317.098 417.45 312.448 435.15C305.698 461.25 297.598 480.45 276.748 501.3C258.448 519.6 227.248 531 178.498 537.3C173.098 538.05 138.898 542.55 115.948 544.35L128.548 421.95C147.448 429.75 161.098 431.1 171.298 431.1C204.898 431.1 227.248 421.95 252.598 407.1C270.598 396.6 291.148 380.85 299.398 374.25C308.098 380.4 318.748 384 330.148 384" fill="#E8F8E9"/>
<path d="M439.347 330.444C419.097 325.194 393.597 321.894 382.947 320.544C381.597 312.744 378.447 305.094 373.497 298.344C382.347 291.444 400.797 277.344 416.697 268.044C439.947 254.394 459.297 246.594 488.847 246.594C514.797 246.594 544.947 260.544 583.797 290.694C587.997 293.994 615.447 314.994 632.997 329.994L537.447 407.544C529.497 388.644 520.947 377.994 513.747 370.944C490.197 347.244 467.847 337.794 439.347 330.444Z" fill="#E8F8E9"/>
<path d="M299.098 374.245C294.148 370.795 289.798 366.595 286.348 361.645C277.498 368.545 259.048 382.645 243.148 391.945C219.898 405.595 200.548 413.545 170.998 413.395C145.048 413.395 114.898 399.445 76.0476 369.295C71.8476 365.995 44.3977 344.995 26.8477 329.995L122.398 252.445C130.348 271.345 138.898 281.995 146.098 289.045C169.798 312.745 192.148 322.045 220.498 329.545C240.748 334.795 266.248 338.095 276.898 339.445C278.698 349.945 283.798 359.995 291.898 368.095" fill="#E8F8E9"/>
<path d="M208.499 42.4547C242.399 28.2047 278.099 20.1047 314.849 18.3047C300.299 36.0047 279.899 60.9047 276.749 64.9547C262.949 82.8047 253.199 98.1047 246.149 111.305L120.299 98.8547C146.399 75.3047 175.949 56.2547 208.499 42.4547Z" fill="#8ABD91"/>
<path d="M451.499 617.553C417.599 631.803 381.899 639.903 345.149 641.703C359.699 624.003 380.099 599.103 383.249 595.053C397.049 577.203 406.799 561.903 413.849 548.703L539.699 561.153C513.599 584.703 484.049 603.753 451.499 617.553Z" fill="#8ABD91"/>
<path d="M447.45 40.8047C481.5 54.6047 512.4 74.1047 539.7 98.8547C516.9 101.105 484.95 104.255 479.7 105.005C457.35 107.855 439.65 111.755 425.25 116.105L345 18.3047C380.25 19.9547 414.6 27.6047 447.45 40.8047Z" fill="#8ABD91"/>
<path d="M212.549 619.206C178.499 605.406 147.599 585.906 120.299 561.156C143.099 558.906 175.049 555.756 180.299 555.006C202.649 552.156 220.349 548.256 234.749 543.906L314.999 641.706C279.749 640.056 245.399 632.406 212.549 619.206Z" fill="#8ABD91"/>
<path d="M617.548 208.505C631.798 242.405 639.898 278.105 641.698 314.855C623.998 300.305 599.098 279.905 595.048 276.755C577.198 262.955 561.898 253.205 548.698 246.155L561.148 120.305C584.698 146.405 603.748 175.955 617.548 208.505Z" fill="#8ABD91"/>
<path d="M42.4488 451.506C28.1988 417.606 20.0988 381.906 18.2988 345.156C35.9988 359.706 60.8988 380.106 64.9488 383.256C82.7988 397.056 98.0988 406.806 111.299 413.856L98.8488 539.706C75.2988 513.606 56.2488 484.056 42.4488 451.506Z" fill="#8ABD91"/>
<path d="M619.199 447.45C605.399 481.5 585.899 512.4 561.149 539.7C558.899 516.9 555.749 484.95 554.999 479.7C552.149 457.35 548.249 439.65 543.899 425.25L641.699 345C640.049 380.25 632.399 414.6 619.199 447.45Z" fill="#8ABD91"/>
<path d="M40.7988 212.555C54.5988 178.505 74.0988 147.605 98.8488 120.305C101.099 143.105 104.249 175.055 104.999 180.305C107.849 202.655 111.749 220.355 116.099 234.755L18.2988 315.005C19.9488 279.755 27.5988 245.405 40.7988 212.555Z" fill="#8ABD91"/>
<path d="M364.851 338.236C369.401 318.967 357.469 299.658 338.2 295.108C318.931 290.558 299.622 302.49 295.072 321.759C290.522 341.028 302.454 360.337 321.723 364.887C340.992 369.437 360.301 357.505 364.851 338.236Z" fill="#FCFFDC"/>
<path d="M660 330C660 238.8 623.1 156.45 563.25 96.6C503.55 36.9 421.05 0 330 0C238.95 0 156.45 36.9 96.6 96.75C36.9 156.45 0 238.95 0 330C0 421.05 36.9 503.55 96.75 563.4C156.45 623.1 238.95 660 330 660C421.05 660 503.55 623.1 563.4 563.25C623.1 503.55 660 421.05 660 330ZM617.55 208.5C631.8 242.4 639.9 278.1 641.7 314.85C624 300.3 599.1 279.9 595.05 276.75C577.2 262.95 561.9 253.2 548.7 246.15L561.15 120.3C584.7 146.4 603.75 175.95 617.55 208.5ZM513.9 370.95C490.2 347.25 467.85 337.95 439.5 330.45C419.25 325.2 393.75 321.9 383.1 320.55C384.15 326.4 384.15 332.55 383.25 338.4C394.35 339.75 417.45 342.9 435.15 347.55C461.25 354.3 480.45 362.4 501.3 383.25C519.6 401.55 531 432.75 537.3 481.5C538.05 486.9 542.55 521.1 544.35 544.05L421.95 531.45C429.75 512.55 431.1 498.9 431.1 488.7C431.1 455.1 421.95 432.75 407.1 407.4C396.6 389.4 380.85 368.85 374.25 360.6C380.4 351.9 384 341.25 384 329.85C384 300.15 359.85 276 330.15 276C318.3 276 307.5 279.75 298.5 286.2C291.6 277.35 277.5 258.9 268.2 243C254.55 219.75 246.6 200.4 246.6 170.85C246.6 144.9 260.55 114.75 290.7 75.9C294 71.85 315 44.4 330 27L407.55 122.55C388.65 130.5 378 139.05 370.8 146.25C347.1 169.95 337.8 192.3 330.3 220.65C325.05 240.9 321.75 266.4 320.4 277.05C326.25 276 332.4 276 338.25 276.9C339.6 265.8 342.75 242.7 347.4 225C354.15 198.9 362.25 179.7 383.1 158.85C401.4 140.55 432.6 129.15 481.35 122.85C486.75 122.1 520.95 117.6 543.9 115.8L531.3 238.2C512.4 230.4 498.75 229.05 488.55 229.05C454.95 229.05 432.6 238.2 407.25 253.05C389.25 263.55 368.85 279.3 360.45 285.9C365.4 289.35 369.75 293.55 373.2 298.5C382.05 291.6 400.5 277.5 416.4 268.2C439.65 254.55 459 246.75 488.55 246.75C514.5 246.75 544.65 260.7 583.5 290.85C587.7 294.15 615.15 315.15 632.7 330.15L537.15 407.7C529.65 388.65 520.95 378 513.9 370.95ZM539.1 411.45C539.25 411.75 539.25 412.05 539.4 412.2C539.25 411.9 539.1 411.6 539.1 411.45ZM540.6 415.65C540.75 415.95 540.75 416.1 540.9 416.4C540.75 416.1 540.75 415.8 540.6 415.65ZM420.3 535.35C420.15 535.65 420 535.8 420 536.1C420 535.95 420.15 535.65 420.3 535.35ZM418.35 539.4C418.2 539.7 418.2 539.85 418.05 540.15C418.2 540 418.35 539.7 418.35 539.4ZM252.45 537.6C271.35 529.65 282 521.1 289.05 513.9C312.75 490.2 322.05 467.85 329.55 439.5C334.8 419.25 338.1 393.75 339.45 383.1C347.7 381.6 355.2 378.3 361.65 373.65C368.55 382.5 382.65 400.95 391.95 416.85C405.6 440.1 413.55 459.45 413.55 489C413.55 514.95 399.6 545.1 369.45 583.95C366.15 588.15 345.15 615.6 330.15 633.15L252.45 537.6ZM128.4 421.95C147.3 429.75 160.95 431.1 171.15 431.1C204.75 431.1 227.1 421.95 252.45 407.1C270.45 396.6 290.85 380.85 299.25 374.25C305.85 378.75 313.35 382.05 321.6 383.25C320.25 394.35 317.1 417.45 312.45 435.15C305.7 461.25 297.6 480.45 276.75 501.3C258.45 519.6 227.25 531 178.5 537.3C173.1 538.05 138.9 542.55 115.95 544.35L128.4 421.95ZM115.65 416.1C115.8 416.25 115.95 416.25 116.1 416.4C115.95 416.25 115.8 416.1 115.65 416.1ZM119.85 418.05C120.15 418.2 120.3 418.35 120.6 418.35C120.3 418.35 120 418.2 119.85 418.05ZM252.9 252.3C263.4 270.3 279.15 290.7 285.75 299.1C281.1 305.7 277.95 313.2 276.75 321.45C265.65 320.1 242.7 316.95 224.85 312.3C198.75 305.55 179.55 297.45 158.7 276.6C140.4 258.3 129 227.1 122.7 178.35C121.95 172.95 117.45 138.75 115.65 115.8L238.05 128.4C230.25 147.3 228.9 160.95 228.9 171.15C228.9 204.6 238.05 227.1 252.9 252.3ZM239.7 124.65C239.85 124.35 240 124.2 240 123.9C240 124.05 239.85 124.35 239.7 124.65ZM241.65 120.6C241.8 120.3 241.95 120.15 241.95 119.85C241.8 120 241.65 120.3 241.65 120.6ZM330 365.85C310.2 365.85 294.15 349.8 294.15 330C294.15 310.2 310.2 294.15 330 294.15C349.8 294.15 365.85 310.2 365.85 330C365.85 349.8 349.8 365.85 330 365.85ZM146.1 289.05C169.8 312.75 192.15 322.05 220.5 329.55C240.75 334.8 266.1 338.1 276.75 339.45C278.25 347.7 281.55 355.2 286.2 361.65C277.35 368.55 258.9 382.65 243 391.95C219.75 405.6 200.4 413.55 170.85 413.55C144.9 413.55 114.75 399.6 75.9 369.45C71.7 366.15 44.25 345.15 26.7 330.15L122.25 252.6C130.35 271.35 139.05 282 146.1 289.05ZM248.55 539.1C248.25 539.25 247.95 539.25 247.8 539.4C248.1 539.25 248.4 539.1 248.55 539.1ZM244.35 540.6C244.05 540.75 243.9 540.75 243.6 540.9C243.9 540.75 244.2 540.75 244.35 540.6ZM411.45 120.9C411.75 120.75 412.05 120.75 412.35 120.6C411.9 120.75 411.6 120.9 411.45 120.9ZM415.65 119.4C415.95 119.25 416.1 119.25 416.4 119.1C416.1 119.25 415.8 119.25 415.65 119.4ZM544.35 243.9C544.2 243.75 544.05 243.75 543.9 243.75C544.05 243.75 544.2 243.9 544.35 243.9ZM540.15 241.95C539.85 241.8 539.7 241.65 539.4 241.65C539.7 241.65 540 241.8 540.15 241.95ZM451.5 42.45C484.05 56.25 513.6 75.15 539.7 98.85C516.9 101.1 484.95 104.25 479.7 105C457.35 107.85 439.65 111.75 425.25 116.1L345 18.3C381.9 20.1 417.6 28.2 451.5 42.45ZM208.5 42.45C242.4 28.2 278.1 20.1 314.85 18.3C300.3 36 279.9 60.9 276.75 64.95C262.95 82.8 253.2 98.1 246.15 111.3L120.3 98.85C146.4 75.3 175.95 56.25 208.5 42.45ZM42.45 208.5C56.25 175.95 75.15 146.4 98.85 120.3C101.1 143.1 104.25 175.05 105 180.3C107.85 202.65 111.75 220.35 116.1 234.75L18.3 315C20.1 278.1 28.2 242.4 42.45 208.5ZM120.9 248.55C120.75 248.25 120.75 247.95 120.6 247.8C120.75 248.1 120.9 248.4 120.9 248.55ZM119.4 244.35C119.25 244.05 119.25 243.9 119.1 243.6C119.25 243.9 119.25 244.2 119.4 244.35ZM42.45 451.5C28.2 417.6 20.1 381.9 18.3 345.15C36 359.7 60.9 380.1 64.95 383.25C82.8 397.05 98.1 406.95 111.3 413.85L98.85 539.7C75.3 513.6 56.25 484.05 42.45 451.5ZM208.5 617.55C175.95 603.75 146.4 584.85 120.3 561.15C143.1 558.9 175.05 555.75 180.3 555C202.65 552.15 220.35 548.25 234.75 543.9L315 641.7C278.1 639.9 242.4 631.8 208.5 617.55ZM451.5 617.55C417.6 631.8 381.9 639.9 345.15 641.7C359.7 624 380.1 599.1 383.25 595.05C397.05 577.2 406.8 561.9 413.85 548.7L539.7 561.15C513.6 584.7 484.05 603.75 451.5 617.55ZM555 479.7C552.15 457.35 548.25 439.65 543.9 425.25L641.7 345C639.9 381.75 631.8 417.6 617.55 451.35C603.75 483.9 584.85 513.45 561.15 539.55C558.75 516.75 555.6 484.95 555 479.7Z" fill="#404040"/>
</g>
<defs>
<clipPath id="clip0_1958_2">
<rect width="660" height="660" fill="white"/>
</clipPath>
</defs>
</svg>
